<svg viewBox="0 0 12 19" fill="none" xmlns="http://www.w3.org/2000/svg">
    <path d="M0.872734 9.38464C0.998972 9.61864 1.23902 9.76452 1.5001 9.76452H5.56555V17.7918C5.56555 18.1972 5.88688 18.5261 6.28281 18.5261C6.67874 18.5261 7.00007 18.1972 7.00007 17.7918V9.76452H11.0655C11.3276 9.76452 11.5676 9.61864 11.6929 9.38464C11.8201 9.15065 11.8115 8.86476 11.6728 8.6386L6.89009 0.868786C6.75812 0.655351 6.52955 0.526115 6.28281 0.526115C6.03607 0.526115 5.80751 0.655351 5.67553 0.868786L0.892817 8.6386C0.820135 8.75804 0.782837 8.89413 0.782837 9.03022C0.782837 9.15163 0.81344 9.27401 0.872734 9.38464Z"
          fill="currentColor"/>
</svg>
