<svg viewBox="0 0 7 7" fill="none" xmlns="http://www.w3.org/2000/svg">
    <path fill-rule="evenodd" clip-rule="evenodd"
          d="M1.17587 6.3917C0.983867 6.3917 0.791867 6.3187 0.645867 6.1717C0.352867 5.8787 0.352867 5.4047 0.645867 5.1117L5.43787 0.319699C5.73087 0.0266989 6.20487 0.0266989 6.49787 0.319699C6.79087 0.612699 6.79087 1.0867 6.49787 1.3797L1.70587 6.1717C1.55987 6.3187 1.36787 6.3917 1.17587 6.3917Z"
          fill="currentColor"/>
    <path fill-rule="evenodd" clip-rule="evenodd"
          d="M5.96985 6.3946C5.77785 6.3946 5.58585 6.3216 5.43985 6.1746L0.643853 1.3776C0.350853 1.0846 0.350853 0.610597 0.643853 0.317597C0.937853 0.024597 1.41185 0.024597 1.70385 0.317597L6.49985 5.1146C6.79285 5.4076 6.79285 5.8816 6.49985 6.1746C6.35385 6.3216 6.16085 6.3946 5.96985 6.3946Z"
          fill="currentColor"/>
</svg>
