<svg xmlns="http://www.w3.org/2000/svg" viewBox="0 0 379.06 393.72">
    <defs>
        <style>.cls-1{fill:currentColor;}</style>
    </defs>
    <g id="Layer_2">
        <g id="Layer_1-2">
            <path class="cls-1"
                  d="M174.65.39c-36.5,3.51-70,16.53-98.3,38.1-9.51,7.24-24.64,21.94-32,31.08C20.11,99.71,5.41,135,.88,174.31c-1.47,12.65-1,40.51.8,51.92C11,284.38,40.52,331.62,87,362.85c42.2,28.3,97.49,37.88,147.52,25.67,69.55-17,124.55-74.67,140.42-146.93,3.58-16.53,4.09-21.79,4.09-43.52,0-21.21-.36-25.45-3.36-40.95a208.6,208.6,0,0,0-36.35-81.4C307.9,34,261.39,6.9,210.63,1,202.37,0,181.89-.34,174.65.39ZM215.6,12.67c78.26,11.49,139.69,74,152.57,155.05,1.53,10,2.19,36.64,1.09,47.61a205.46,205.46,0,0,1-14.41,56.39c-31.81,76-109.55,121.7-188.54,111-30.06-4.1-62.09-18.36-87.11-38.69-9.28-7.53-23-21.87-30.49-31.81-23.19-30.94-36.5-68-37.6-104.22-.21-9.29-.14-11.34.52-10,1,1.9,4,2.92,5.19,1.75.51-.51.8-7.46.95-19.3.22-30.65,2.71-45.28,10.75-63.85,8.78-20.11,26.55-44.18,44.25-60q43.88-39,102.24-45.2C181.52,10.63,207.56,11.5,215.6,12.67Z"/>
            <path class="cls-1"
                  d="M288.15,120.55c-7.82,2.19-24.72,8-35.17,12.14-10.75,4.32-14.27,6.88-14.27,10.68a6.92,6.92,0,0,0,1,3.87c.58.66,5,3.15,9.73,5.56s15.13,8.12,22.89,12.73c15.43,9.14,17.4,9.8,20,6.51,2.05-2.63,1.9-5.56-.36-8.34-1.61-1.83-22.46-15-30.57-19.16-2.12-1.1-2.12-1.1,15.87-8.27,9.94-3.87,19.16-7.82,20.48-8.7,2.41-1.61,3.43-4.9,2.12-6.87C298.76,119.09,293.79,119,288.15,120.55Z"/>
            <path class="cls-1"
                  d="M70.21,121.06c-1.83.73-2.49,3.88-1.17,5.85,1.68,2.64,3.95,3.37,24.13,7.9,23.7,5.27,25.16,5.63,25.16,6.22a9.82,9.82,0,0,1-2.7,2c-16.83,9.07-29.33,16.31-31.38,18.07a8.23,8.23,0,0,0-3,5c-.36,2.34-.07,3,1.83,5,2.93,2.86,5.85,2.93,9.07.08,2.34-2.05,18-11,35.84-20.48,11.62-6.14,14-9.29,11.19-14.63-1.32-2.63-5.56-4.46-16.83-7.31C98.44,122.74,74.74,119.23,70.21,121.06Z"/>
            <path class="cls-1"
                  d="M195.49,203.27A114.69,114.69,0,0,0,143.56,222c-10.6,7.09-25.37,22.09-32.76,33.13-9.87,15-16.16,30.86-14.34,36.35.59,2,1.17,2.41,2.78,2.41,2.71,0,3.51-1,9.22-11.7,12.8-23.91,25.16-38.47,42.42-49.88,10.9-7.24,19.6-11,32.47-14.33,7-1.76,9.14-1.9,21.28-2,14.92,0,20.77.88,32.18,4.9a102.59,102.59,0,0,1,38,23.63,120.58,120.58,0,0,1,21.8,27.42c2.85,4.83,5.77,8.78,6.87,9.44,3.66,2,8.7-1,8.7-5.34,0-5.49-12.43-24.36-23.77-36.2-20.77-21.58-44.9-33.57-73.64-36.65A73.84,73.84,0,0,0,195.49,203.27Z"/>
        </g>
    </g>
</svg>
